#N canvas 968 193 465 513 10;
#X obj 46 34 master_serial;
#X floatatom 46 132 5 0 0 0 - - -, f 5;
#X obj 46 110 * 3;
#X obj 247 407 osc~;
#X obj 155 121 / 500;
#X obj 248 316 + 400;
#X floatatom 248 338 5 0 0 0 - - -, f 5;
#X floatatom 381 370 5 0 0 0 - - -, f 5;
#X obj 381 185 f;
#X obj 248 379 line~;
#X obj 381 411 line~;
#X obj 247 429 *~;
#X obj 247 481 dac~;
#X obj 304 49 tgl 15 0 empty empty empty 17 7 0 10 -262144 -1 -1 0
1;
#X msg 304 69 \; pd dsp \$1;
#X msg 381 389 \$1 100;
#X obj 248 193 swap 1;
#X obj 248 215 -;
#X msg 248 357 \$1 100;
#X obj 248 294 * 1600;
#X obj 46 181 vsl 30 256 0 500 0 0 empty empty empty 0 -9 0 10 -258113
-1 -1 25500 1;
#X floatatom 155 174 5 0 0 0 - - -, f 5;
#X connect 0 0 2 0;
#X connect 1 0 4 0;
#X connect 1 0 20 0;
#X connect 2 0 1 0;
#X connect 3 0 11 0;
#X connect 4 0 8 0;
#X connect 4 0 16 0;
#X connect 4 0 21 0;
#X connect 5 0 6 0;
#X connect 6 0 18 0;
#X connect 7 0 15 0;
#X connect 8 0 7 0;
#X connect 9 0 3 0;
#X connect 10 0 11 1;
#X connect 11 0 12 0;
#X connect 11 0 12 1;
#X connect 13 0 14 0;
#X connect 15 0 10 0;
#X connect 16 0 17 0;
#X connect 16 1 17 1;
#X connect 17 0 19 0;
#X connect 18 0 9 0;
#X connect 19 0 5 0;
